<svg xmlns="http://www.w3.org/2000/svg" xmlns:xlink="http://www.w3.org/1999/xlink" width="500" zoomAndPan="magnify" viewBox="0 0 375 374.999991" height="500" preserveAspectRatio="xMidYMid meet" version="1.0"><path fill="#287ee8" d="M 113.523438 112.890625 C 113.230469 113.917969 111.324219 123.046875 111.324219 123.535156 C 111.324219 123.828125 118.355469 124.023438 130.320312 124.023438 C 150.828125 124.023438 153.804688 124.269531 161.714844 126.757812 C 172.410156 130.078125 183.785156 138.769531 190.328125 148.535156 C 191.546875 150.390625 192.574219 151.855469 192.671875 151.855469 C 192.71875 151.855469 193.160156 150.585938 193.597656 149.074219 C 194.039062 147.511719 195.0625 144.875 195.84375 143.117188 C 196.625 141.40625 197.261719 139.601562 197.261719 139.113281 C 197.261719 137.890625 189.058594 129.394531 184.519531 125.929688 C 174.507812 118.3125 162.546875 113.769531 149.753906 112.792969 C 140.476562 112.0625 113.765625 112.160156 113.523438 112.890625 Z M 113.523438 112.890625 " fill-opacity="1" fill-rule="nonzero"/><path fill="#287ee8" d="M 242.914062 112.84375 C 225.335938 115.039062 209.515625 126.855469 201.703125 143.652344 C 199.066406 149.316406 197.503906 154.785156 196.136719 163.378906 L 195.015625 170.800781 L 199.164062 168.75 C 201.460938 167.628906 204.292969 166.359375 205.367188 165.96875 C 207.417969 165.1875 207.417969 165.136719 208.003906 161.574219 C 209.664062 151.710938 213.570312 143.652344 219.964844 136.816406 C 224.75 131.640625 230.121094 128.273438 237.640625 125.636719 L 241.449219 124.269531 L 267.476562 124.121094 L 293.550781 123.976562 L 291.988281 126.855469 C 289.789062 131.007812 285.640625 134.960938 281.246094 137.109375 L 277.582031 138.917969 L 261.226562 139.210938 C 250.238281 139.40625 244.234375 139.699219 242.914062 140.089844 C 239.496094 141.164062 234.320312 144.140625 231.683594 146.582031 C 226.996094 150.878906 223.042969 158.398438 222.261719 164.503906 L 221.917969 167.238281 L 218.011719 168.066406 C 203.558594 171.09375 189.886719 179.054688 180.171875 190.039062 C 178.121094 192.332031 174.3125 197.3125 171.726562 201.023438 C 165.914062 209.375 163.375 212.253906 158.835938 215.867188 C 151.902344 221.386719 143.648438 224.121094 133.980469 224.121094 C 128.464844 224.121094 128.414062 224.121094 128.660156 222.996094 C 128.804688 222.410156 130.90625 212.011719 133.296875 199.949219 C 135.738281 187.839844 138.328125 175.050781 139.109375 171.484375 L 140.476562 165.039062 L 139.402344 165.039062 C 135.347656 165.039062 129.34375 169.484375 127.4375 173.878906 C 126.804688 175.390625 124.019531 188.183594 120.554688 205.761719 C 117.378906 221.921875 114.742188 235.15625 114.742188 235.203125 C 114.742188 235.59375 140.425781 235.253906 143.308594 234.863281 C 145.210938 234.570312 148.824219 233.640625 151.460938 232.714844 C 162.886719 228.808594 171.089844 221.972656 179.734375 209.128906 C 183.589844 203.417969 189.253906 196.484375 192.476562 193.503906 C 200.09375 186.523438 210.640625 181.300781 221.675781 178.90625 C 224.554688 178.273438 229.339844 178.078125 243.792969 177.882812 L 262.203125 177.636719 L 261.714844 178.957031 C 259.90625 183.691406 255.171875 188.671875 250.289062 190.964844 C 246.722656 192.625 241.742188 193.359375 233.296875 193.359375 C 224.847656 193.359375 218.648438 194.871094 210.199219 199.023438 C 202.582031 202.734375 196.285156 208.496094 190.425781 217.285156 C 177.292969 236.816406 162.9375 246.824219 143.113281 250.242188 C 137.59375 251.21875 96.675781 251.316406 96.675781 250.339844 C 96.675781 250.046875 97.996094 243.261719 99.65625 235.351562 C 101.265625 227.441406 104.734375 210.15625 107.417969 197.019531 C 110.054688 183.839844 112.691406 171.828125 113.277344 170.265625 C 117.769531 158.351562 129.539062 150.34375 142.527344 150.390625 C 144.820312 150.390625 147.703125 150.636719 148.921875 150.878906 C 158.101562 152.929688 166.402344 159.425781 170.40625 167.726562 C 172.800781 172.609375 173.777344 176.5625 174.167969 182.960938 L 174.460938 187.890625 L 179.292969 183.058594 C 181.980469 180.421875 184.371094 178.222656 184.617188 178.222656 C 185.300781 178.222656 185.152344 176.515625 184.078125 172.414062 C 179.734375 155.273438 167.28125 143.066406 150.730469 139.648438 C 146.726562 138.820312 137.644531 138.917969 133.542969 139.84375 C 125.09375 141.652344 118.503906 145.265625 112.351562 151.417969 C 107.664062 156.105469 104.683594 160.792969 102.390625 167.1875 C 101.21875 170.558594 96.335938 193.75 88.082031 235.351562 C 85.933594 246.140625 83.054688 260.203125 82.710938 261.375 C 82.417969 262.207031 83.6875 262.253906 113.621094 262.058594 L 144.773438 261.914062 L 149.898438 260.644531 C 165.230469 256.835938 177.097656 249.949219 187.835938 238.574219 C 192.28125 233.933594 194.429688 231.152344 199.457031 223.875 C 203.363281 218.210938 209.078125 212.351562 213.082031 210.007812 C 214.59375 209.082031 215.914062 208.445312 216.058594 208.542969 C 216.402344 208.933594 213.472656 221.875 212.398438 224.804688 C 208.148438 235.984375 198.382812 245.214844 186.519531 249.265625 C 184.617188 249.902344 182.175781 251.171875 181.003906 252.097656 C 177.535156 254.882812 174.265625 256.980469 169.1875 259.667969 L 164.304688 262.253906 L 174.3125 262.058594 C 183.492188 261.863281 184.664062 261.765625 188.714844 260.546875 C 202.242188 256.445312 214.449219 246.335938 220.550781 234.128906 C 223.480469 228.320312 225.09375 222.558594 228.023438 207.371094 L 228.558594 204.589844 L 235.980469 204.589844 C 240.179688 204.539062 245.113281 204.246094 247.308594 203.855469 C 252.875 202.878906 259.125 199.65625 263.617188 195.507812 C 270.894531 188.769531 273.96875 182.179688 276.117188 168.554688 L 276.460938 166.503906 L 233.296875 166.503906 L 233.636719 164.894531 C 234.125 162.453125 236.566406 157.617188 238.128906 155.957031 C 239.886719 154.054688 242.816406 152.199219 245.113281 151.464844 C 246.1875 151.125 252.632812 150.832031 261.957031 150.734375 C 279.046875 150.488281 280.757812 150.246094 287.152344 146.925781 C 292.085938 144.335938 296.089844 141.066406 299.117188 137.0625 C 301.949219 133.300781 304.730469 127.929688 305.804688 124.023438 C 306.929688 120.117188 308.148438 113.234375 307.808594 112.746094 C 307.464844 112.160156 247.503906 112.304688 242.914062 112.84375 Z M 242.914062 112.84375 " fill-opacity="1" fill-rule="nonzero"/></svg>